<?xml version="1.0" encoding="UTF-8"?>
<svg id="Layer_1" data-name="Layer 1" xmlns="http://www.w3.org/2000/svg" viewBox="0 0 2000 2000">
  <defs>
    <style>
      .cls-1, .cls-2 {
        fill: #19452b;
      }

      .cls-3 {
        fill: #fff8e8;
      }

      .cls-4 {
        fill: #faf8f4;
      }

      .cls-2 {
        font-family: Poppins-ExtraBold, Poppins;
        font-size: 231.4px;
        font-weight: 700;
      }

      .cls-5, .cls-6 {
        fill: #ec5d38;
      }

      .cls-6 {
        font-family: Poppins-Medium, Poppins;
        font-size: 87.93px;
        font-weight: 500;
      }
    </style>
  </defs>
  <rect class="cls-3" width="1990.08" height="1990.08"/>
  <g>
    <g>
      <path class="cls-1" d="M1537.6,747.77c-.65,20.27-2.3,38.42-5.64,57.79-20.35,117.96-68.06,223.63-149.75,311.72-56.48,60.91-129.87,108.32-207.8,136.97-90.59,33.3-190.66,37.54-284.47,15.12-153.02-36.58-286.72-139.18-360.38-278.41-32.72-61.85-55.08-128.62-64.12-197.97-2.6-19.95-4.19-38.43-2.15-57.82,2.79-26.53,24.28-45.17,50.54-44.96,10.28.08,19.78,1.76,29.25,5.49l62.72,24.67c40.36,15.88,79.39,31.75,120.73,45.39,54.38,17.94,108.78,32.54,165.64,40.83,81.42,11.88,163.68,10.49,244.75-3.6,49.55-8.61,96.89-21.73,144.47-37.5l115.94-43.99,63.79-26.04c20.59-8.41,46.54-6.48,61.8,9.61,10.82,11.41,15.19,26.38,14.67,42.7ZM1383.08,990.89c38.39-62.26,62.23-130.14,73.16-201.74.49-3.24.03-5.3-2.61-6.7-1.36-.72-3.55-.33-5.87.7-45.22,20.01-90.17,38.57-137.2,54.65-101.26,34.63-200.09,55.64-307.61,55.32-117.84-.35-215.54-23.18-325.8-61.98-42.97-15.12-84.23-31.74-125.69-49.97-2.31-1.02-4.92-.14-6.2.61-1.57.92-2.52,3.78-2.1,6.02l7.03,37.58c13.12,63.21,39.17,121.99,75.47,175.37,34.92,51.36,79.29,94.49,131.49,128.15,44.75,28.86,92.68,50.34,144.35,63.43,71.08,18.01,150.85,18.43,221.21-2.43,68.27-20.23,130.75-55.23,182.5-103.99,30.06-28.33,55.93-59.39,77.9-95.02Z"/>
      <g>
        <path class="cls-1" d="M1426.93,591.49c-48.35-11.13-94.57-.49-134.29,28.99-12.35,9.17-28.75,6.41-38.84-4.1-13-13.52-12.45-31.81.18-46.26,50.56-38.36,115.68-57.28,179.1-43.79,17.41,3.7,29.13,15.62,29.59,34.17.46,18.57-15.97,35.54-35.74,30.99Z"/>
        <g>
          <path class="cls-1" d="M565.95,601.05c-15.76-14.41-14.88-35.59-2.55-51.74l98.4-128.96,83.44-110.88c7.42-9.86,22.28-11.57,33.62-9.55,10.78,1.92,21.31,10.39,25.66,21,6.39,15.6,1.44,27.87-7.9,40.08l-175.76,229.7c-11.3,20.07-36.71,24.85-54.91,10.36Z"/>
          <path class="cls-1" d="M773.51,637.15c-13.35,15.92-35.09,19.32-50.83,6.66-15.69-12.62-17.39-35.12-3.74-50.86l95.9-110.62,77.91-90.48c15.49-12.23,36.37-8.54,48.33,5,13.74,15.64,10.12,35.18-2.97,50.24l-147.91,170.17-16.68,19.89Z"/>
        </g>
      </g>
      <path class="cls-4" d="M1383.08,990.89c-21.97,35.64-47.83,66.69-77.9,95.02-51.74,48.76-114.22,83.76-182.5,103.99-70.36,20.85-150.13,20.44-221.21,2.43-51.67-13.09-99.6-34.57-144.35-63.43-52.2-33.66-96.56-76.79-131.49-128.15-36.3-53.37-62.34-112.15-75.47-175.37l-7.03-37.58c-.42-2.24.53-5.09,2.1-6.02,1.28-.75,3.89-1.63,6.2-.61,41.46,18.23,82.73,34.85,125.69,49.97,110.26,38.79,207.96,61.62,325.8,61.98,107.52.32,206.35-20.69,307.61-55.32,47.03-16.08,91.98-34.65,137.2-54.65,2.33-1.03,4.51-1.42,5.87-.7,2.65,1.4,3.11,3.46,2.61,6.7-10.93,71.6-34.77,139.48-73.16,201.74ZM1344.65,926.72l19.42-46.62c.73-1.76-.23-4.81-1.39-5.45s-3.62-.89-5.62-.07c-126.33,52.01-259.18,79.98-396.81,73.26-88.97-4.35-175.47-22.27-259.42-51.62l-58.5-21.7c-1.97-.73-3.74-.53-4.98.5-.99.82-2.25,2.93-1.52,4.9,10.27,27.61,22.28,53.76,38.31,78.52,18.81,29.06,39.8,55.15,65.23,78.86,90.13,84.07,218.42,122.95,340.01,96.97,63.4-13.55,122.22-42.1,171.32-84.39l35.1-35.17c23.64-26.56,43-55.57,58.85-88Z"/>
      <path class="cls-5" d="M1344.65,926.72c-15.85,32.43-35.2,61.44-58.85,88l-35.1,35.17c-49.1,42.29-107.92,70.84-171.32,84.39-121.59,25.98-249.88-12.9-340.01-96.97-25.42-23.71-46.42-49.81-65.23-78.86-16.03-24.76-28.04-50.91-38.31-78.52-.73-1.97.53-4.08,1.52-4.9,1.24-1.03,3.01-1.23,4.98-.5l58.5,21.7c83.95,29.35,170.45,47.27,259.42,51.62,137.63,6.72,270.48-21.24,396.81-73.26,2-.82,4.52-.54,5.62.07s2.12,3.69,1.39,5.45l-19.42,46.62Z"/>
    </g>
    <g>
      <text class="cls-2" transform="translate(301.3 1535.63)"><tspan x="0" y="0">CHOP CHOP</tspan></text>
      <g>
        <text class="cls-6" transform="translate(271.98 1649.65)"><tspan x="0" y="0">Freshy Chopped. Served Hot.</tspan></text>
        <path class="cls-5" d="M1681.02,1660.88c-42.15,15.91-61.45-22.29-71.42-21.11-20.74,2.44-40.63,5.58-61.32,4.91-1.25-.05-1.39-5.46-.14-5.73l49.8-4.76c6.29-26.58,14.53-41.79,41.3-52.6.49,22.03-10.99,39.89-29.74,50.69,21.77-2.93,42.61-10.41,60.99-19.92-.18-19.99,12.81-41.73,32.41-46.96-.2,14.11-4.99,26.73-13.42,37.18-2.63,3.27-7.05,4.59-8.83,8.86,15.13-7.65,43.93-15.39,47.09-5.25,3.56,11.4-28.37,22.1-49.22,11.26l-30.41,12.02c-8.46,3.34-16.7,5.65-25.71,6.83,1.66,6.48,17.2-1.92,32.77,4.03,10.22,3.9,18.92,10.95,25.84,20.57ZM1693.26,1577.55c-8.46,6.64-13.6,16.21-15.09,25.59,9.11-6.22,17.16-16.81,15.09-25.59ZM1607.47,1625.46c12.37-7.97,20.71-19.2,24.96-33.42-13.37,7.24-21.64,18.95-24.96,33.42ZM1629.65,1644.36c11.11,9.76,24.46,15.37,39.35,13.11-10.82-9.72-24.44-12.7-39.35-13.11Z"/>
      </g>
    </g>
  </g>
</svg>