<?xml version="1.0" encoding="UTF-8"?>
<svg id="Layer_1" data-name="Layer 1" xmlns="http://www.w3.org/2000/svg" viewBox="0 0 2000 2000">
  <defs>
    <style>
      .cls-1 {
        fill: #010101;
      }

      .cls-2 {
        fill: #0f120d;
      }

      .cls-3 {
        fill: #151615;
      }

      .cls-4, .cls-5 {
        fill: #c2382b;
      }

      .cls-6 {
        fill: #cc2027;
      }

      .cls-7 {
        fill: #f4ebe9;
      }

      .cls-8 {
        fill: #f5f2ec;
      }

      .cls-5 {
        font-family: Poppins-Medium, Poppins;
        font-size: 76px;
        font-weight: 500;
        letter-spacing: 1em;
      }
    </style>
  </defs>
  <rect class="cls-1" y="0" width="2000" height="2000"/>
  <rect class="cls-3" x="1212.91" y="1061.84" width="4.12" height="4.12" transform="translate(-396.43 1170.72) rotate(-45)"/>
  <g>
    <g>
      <path class="cls-6" d="M1184.33,430.81l-13.99,31.77-164.97,324.27-166.52,322.28c-4.01,7.75-10.19,14.85-18.51,12.44-19.07-5.52-43.49-11.88-62.97-24.67-45.55-29.93-85.08-70.15-116.05-115.5-24.85-36.39-33.04-78.74-50.18-116.38l-5.49,17.26c-4.92,15.47-9.13-22.86-18.73-59.74,9.18.07,14.55.71,15.21-3,1.23-6.91,3.93-16.41-2.3-27.39-2.16,4.09-4.79,10.57-12.99,12.48-5.41-86.93,18.19-171.6,62.63-246.41l9.19,7.85c35.09-49.87,71.96-97.57,125.02-131.3,123.55-78.53,300.26-81.47,420.64-3.95ZM1014.76,390.08c-20.72-13.98-39.94-11.72-58.15-2.11,20.88,9.81,40.19,6.98,58.15,2.11ZM587.13,808.05c11.43-7.32,9-17.21,4.2-24.4-3.65,5.79-7.06,13.4-4.2,24.4Z"/>
      <path class="cls-6" d="M1308.99,539.32c11.7,8.14,16.16,29.45,25.81,37.25,15.21,12.29,8.75,18.88,12.39,31.66,17.1,60.09,39.35,120.66,21.36,184.71-8.3-75.87-3.85-164.34-65.64-207.71,23.72,66.6,46.73,131.45,39.3,200.57-6.05,56.29-23.44,111.67-51.06,159.4l-23.56,40.7c-4.69,8.1-18.43,13.13-20.89,21.38l2.69,2.32c6.65,5.21,1.03,7.74-1.45,10.88-4.67,5.91-9.12,10.62-14.85,5.3,5.43-8.36,8.09-9.98,10.83-12.04l-.33-2.79c-18.1-3.5-17.04,15.12-24.5,24.07-46.65,56-71.88,63.76-128.9,77.47l-71.82,17.27c31.77,12.42,58.67-5.34,87.27-9.39,47.46-6.72,85.33-21.9,121.27-53.81,74.42-66.08,124.19-152.71,145.45-250.9,26.12-20.66,1.12-50.34,17.93-85.22,6.78,49.13,7.4,102.08-11.24,151.9-30.84,82.44-103.55,196.15-178.85,239-2.58-5.18-12.37-14.69-16.34-12.53l-39.3,21.4c6.8,8.49,14.67,4.19,16.84,5.91,8.84,7.04-59.46,36.9-101.85,36.13l48.57-20.77-94.96,11.18-123.84-8.75c-3.64,3.27-4.94,11.92-.67,19.74l-22.18-7.2,156.07-228.46,267.23-384.12c6.44-9.26,12.92-12.7,19.2-14.54ZM1202.72,1104.01l-2.91,2.91,2.91,2.91,2.91-2.91-2.91-2.91Z"/>
      <path class="cls-4" d="M1223.08,481.03l34.33,47.07-246.72,374.56c-31.4,47.67-91.08,153.72-92.15,116.93-.1-3.55,0-6.77,3.66-13.46l288.3-525.34,12.58.24Z"/>
      <path class="cls-4" d="M1281.61,492.48c-5.27,8.1-9.94,16.48-17.38,22.88-9.88-15.95-21.41-34.42-41.15-34.32-2.52-2.2-4.75-5.11-7.7-7.13,1.31-7.74,8.09-14.88,11.29-21.4,15.59,16.79,32.69,35.97,54.94,39.97Z"/>
      <path class="cls-3" d="M587.13,808.05c-2.85-11,.56-18.61,4.2-24.4,4.79,7.19,7.22,17.09-4.2,24.4Z"/>
      <path class="cls-3" d="M1264.23,515.35c-3.42,2.95-4.51,9.25-6.82,12.75l-34.33-47.07c19.74-.09,31.27,18.37,41.15,34.32Z"/>
      <path class="cls-3" d="M1223.08,481.03l-12.58-.24c1.04-1.9,4.4-4.07,4.88-6.89,2.95,2.02,5.18,4.93,7.7,7.13Z"/>
      <g>
        <path class="cls-7" d="M1308.99,539.32c-6.27,1.84-12.75,5.28-19.2,14.54l-267.23,384.12-156.07,228.46c-10.43,15.27-23.97,28.46-34.3,49.74l-20.81-13.4c-4.82,13.58-11.63,25.36-20.8,33.79-2.65,1.53-11.98-6.68-10.46-9.75l39.3-79.85c4.44-9.03,3.81-18.2.93-25.41,8.32,2.41,14.5-4.69,18.51-12.44l166.52-322.28,164.97-324.27,13.99-31.77,44.43-79.71c7.26-13.03,46.04,3.34,38.97,17.75l-41.06,83.65c-3.2,6.52-9.98,13.66-11.29,21.4-.48,2.82-3.84,4.98-4.88,6.89l-288.3,525.34c-3.67,6.69-3.77,9.91-3.66,13.46,1.08,36.79,60.76-69.27,92.15-116.93l246.72-374.56c2.31-3.5,3.39-9.8,6.82-12.75,7.43-6.4,12.1-14.77,17.38-22.88l112.68-173.13c17.3,1.62,31.43,11.25,39.63,27.25l-115.18,165.76c-6.54,9.41-8.64,19.56-9.76,26.97ZM856.19,1133.13c38.26-38.21,82.08-112.77,54.63-103.93-20.7,33.33-43.45,65.49-54.63,103.93Z"/>
        <path class="cls-4" d="M856.19,1133.13c11.18-38.44,33.93-70.6,54.63-103.93,27.45-8.84-16.36,65.72-54.63,103.93Z"/>
      </g>
    </g>
    <g>
      <rect class="cls-4" x="520.33" y="1623.6" width="107.22" height="5.38"/>
      <rect class="cls-4" x="1368.56" y="1623.62" width="107.02" height="5.36"/>
      <g>
        <path class="cls-8" d="M616.24,1376.14l22.37-.49-43.11,132.05c-6.52,1.48-12.7,1.03-19.91.29l-32.77-94.3-33.55,94.62-19.9-.16-42.5-132.36,22.13-.21,31.01,98.12,34.22-97.5c5.66-1.15,10.51-.85,16.84-.45l34.15,97.56,31-97.17Z"/>
        <path class="cls-8" d="M1420.23,1439.27c15.45,8.92,21.67,23.76,17.42,41.34-3.31,13.69-16.9,26.7-33.74,26.89l-75.16.87-.05-132.88,71.68.64c14.71.13,27.49,10.86,31.37,23,4.51,14.11,2,28.63-11.52,40.13ZM1395.74,1430.44c11.29-.09,17.47-9.41,17.12-18.41-.36-9.19-7.67-16.72-18.07-16.75l-45.25-.1.05,35.63,46.16-.36ZM1400.62,1487.67c11.79-.13,17.78-10.05,17.28-19.74-.48-9.27-8.15-17.34-19.01-17.38l-49.38-.22.28,37.91,50.83-.57Z"/>
        <path class="cls-8" d="M1014.8,1499.79c-24.91,18.67-82.08,14.68-96.55-20.85l17.27-10.17c5.02,9.03,11.73,15.39,21.54,18.62,24.96,8.23,53.69-.02,51.48-18.73-.76-6.46-5.67-11.47-12.67-13.13l-44.85-10.63c-14.1-3.34-24.21-13.63-26.46-26.25-2.66-14.95,3.03-28.12,15.88-36.38,24.23-15.58,69.76-11.9,85.5,16.61-4.76,5.26-10.14,8.95-16.64,11.7-9.92-18.92-37.73-22.01-55.61-13.2-6.35,3.13-8.8,10.14-8.1,15.81.8,6.46,6.16,10.93,13.1,12.52l41.94,9.62c14.41,3.31,25.6,13.41,28.45,26.64,3.05,14.14-1.7,28.37-14.28,37.8Z"/>
        <polygon class="cls-8" points="1220.77 1508.06 1174.66 1403.61 1128.08 1508.03 1104.83 1508.11 1164.45 1375.37 1185.18 1375.51 1244.76 1508.17 1220.77 1508.06"/>
        <polygon class="cls-8" points="820.19 1508.2 774.26 1403.68 727.51 1507.73 704.2 1507.98 763.54 1375.75 783.8 1375.33 843.47 1507.64 820.19 1508.2"/>
        <rect class="cls-8" x="1532.11" y="1375.45" width="20.98" height="132.94"/>
        <path class="cls-2" d="M1400.62,1487.67l-50.83.57-.28-37.91,49.38.22c10.86.05,18.53,8.12,19.01,17.38.5,9.69-5.48,19.61-17.28,19.74Z"/>
        <path class="cls-2" d="M1395.74,1430.44l-46.16.36-.05-35.63,45.25.1c10.4.02,17.71,7.56,18.07,16.75.35,9.01-5.83,18.32-17.12,18.41Z"/>
      </g>
      <text class="cls-5" transform="translate(722.34 1658.54)"><tspan x="0" y="0">HOUSE</tspan></text>
    </g>
  </g>
</svg>